<svg width="35" height="44" viewBox="0 0 35 44" fill="none" xmlns="http://www.w3.org/2000/svg">
<path d="M29.24 23.3631C29.1813 19.777 30.7302 16.9855 33.8834 14.9873C32.105 12.4015 29.4825 10.9481 26.0145 10.6231C24.7809 10.5073 23.2037 10.7989 21.2853 11.5052C19.2215 12.2704 18.0597 12.6507 17.802 12.6507C17.2573 12.6507 16.2113 12.3291 14.6613 11.681C13.1146 11.0345 11.7951 10.7113 10.7056 10.7113C8.87135 10.7412 7.16478 11.2481 5.58874 12.2319C4.01214 13.2169 2.75142 14.5624 1.80603 16.265C0.600691 18.3818 0 20.9095 0 23.8474C0 26.492 0.443031 29.1361 1.33135 31.7824C2.1626 34.31 3.22497 36.5286 4.51338 38.4369C5.65881 40.1711 6.66581 41.4347 7.52305 42.2292C8.7572 43.4628 10.0168 44.0516 11.3086 43.9917C12.1393 43.9612 13.2276 43.6532 14.5754 43.0638C15.8355 42.5084 17.0979 42.2286 18.3598 42.2286C19.5346 42.2286 20.7518 42.5067 22.0148 43.0638C23.4185 43.6532 24.5662 43.9465 25.4545 43.9465C26.7734 43.8889 28.0053 43.3153 29.1536 42.2292C29.5531 41.8749 29.991 41.3906 30.4635 40.7735C31.0088 40.0548 31.5325 39.3198 32.0338 38.5697C32.4516 37.9228 32.8461 37.2612 33.2166 36.5862C33.614 35.8593 33.9658 35.1084 34.2699 34.3377C34.4117 34.0145 34.5406 33.6845 34.6564 33.3465C34.7706 33.0086 34.8853 32.6645 35 32.3113C33.9393 31.8423 32.9787 31.1783 32.1192 30.3256C30.2295 28.4478 29.2689 26.1253 29.24 23.3631ZM23.8208 7.05346C25.3409 5.14289 26.101 3.08596 26.101 0.881541V0.441336C26.101 0.293282 26.0863 0.146923 26.058 0C24.9968 0.0587694 23.8722 0.397259 22.6816 1.01321C21.4926 1.63142 20.5111 2.41124 19.7358 3.34986C18.1886 5.20279 17.4138 7.18512 17.4138 9.30139V9.71899C17.4138 9.85235 17.4285 9.99136 17.4568 10.1394C19.8369 10.3739 21.9583 9.3449 23.8208 7.05346Z" fill="#332607"/>
</svg>
