<svg width="35" height="35" viewBox="0 0 35 35" fill="none" xmlns="http://www.w3.org/2000/svg">
<path d="M17.4999 0C7.83518 0 0 7.83515 0 17.5001C0 27.1655 7.83518 35 17.4999 35C27.1657 35 35 27.1655 35 17.5001C35 7.83578 27.1657 0.000835901 17.4997 0.000835901L17.4999 0V0ZM25.5252 25.2402C25.2118 25.7543 24.5389 25.9173 24.0248 25.6017C19.916 23.0919 14.7436 22.5235 8.65204 23.9153C8.06504 24.049 7.47992 23.6812 7.34618 23.094C7.21181 22.5068 7.57814 21.9216 8.1666 21.7879C14.8328 20.2642 20.5509 20.9206 25.1637 23.7397C25.6778 24.0553 25.8408 24.7261 25.5252 25.2402V25.2402ZM27.6672 20.4745C27.2722 21.1171 26.4322 21.3198 25.7906 20.9248C21.0867 18.0328 13.9162 17.1954 8.35238 18.8844C7.6308 19.1023 6.86868 18.6957 6.64968 17.9753C6.43235 17.2537 6.83922 16.493 7.55954 16.2736C13.915 14.3452 21.816 15.2793 27.2179 18.5989C27.8594 18.9939 28.0621 19.834 27.6672 20.4747V20.4745ZM27.8511 15.5125C22.2109 12.1624 12.9054 11.8544 7.52046 13.4888C6.65574 13.7511 5.74128 13.2629 5.47923 12.3982C5.21718 11.533 5.70492 10.6191 6.57027 10.3562C12.7519 8.47964 23.028 8.84221 29.5216 12.6972C30.3011 13.1588 30.556 14.1634 30.0942 14.9401C29.6344 15.718 28.6272 15.9744 27.8519 15.5125H27.8511Z" fill="#E9CF72"/>
</svg>
