<svg width="35" height="29" viewBox="0 0 35 29" fill="none" xmlns="http://www.w3.org/2000/svg">
<path d="M35 3.36729C33.7123 3.93896 32.3283 4.32396 30.8758 4.4975C32.359 3.60937 33.4979 2.20208 34.0331 0.525C32.6463 1.3475 31.1092 1.94542 29.4729 2.26771C28.1648 0.872083 26.2967 0 24.2317 0C19.5956 0 16.189 4.32542 17.236 8.81562C11.27 8.51667 5.97917 5.65833 2.43688 1.31396C0.555625 4.54125 1.46125 8.76312 4.65792 10.901C3.4825 10.8631 2.37417 10.5408 1.40729 10.0027C1.32854 13.3292 3.71292 16.4412 7.16625 17.134C6.15563 17.4081 5.04875 17.4723 3.92292 17.2565C4.83583 20.109 7.48708 22.1842 10.6313 22.2425C7.6125 24.6094 3.80917 25.6667 0 25.2175C3.17771 27.2548 6.95333 28.4433 11.0075 28.4433C24.3396 28.4433 31.8719 17.1835 31.4169 7.08458C32.8198 6.07104 34.0375 4.80667 35 3.36729Z" fill="#E9CF72"/>
</svg>
